<svg xmlns="http://www.w3.org/2000/svg" viewBox="0 0 1440 320"><path fill="#d2facc" fill-opacity="1" d="M0,160L15,133.3C30,107,60,53,90,37.3C120,21,150,43,180,69.3C210,96,240,128,270,138.7C300,149,330,139,360,149.3C390,160,420,192,450,213.3C480,235,510,245,540,229.3C570,213,600,171,630,160C660,149,690,171,720,154.7C750,139,780,85,810,58.7C840,32,870,32,900,58.7C930,85,960,139,990,154.7C1020,171,1050,149,1080,149.3C1110,149,1140,171,1170,176C1200,181,1230,171,1260,149.3C1290,128,1320,96,1350,117.3C1380,139,1410,213,1425,250.7L1440,288L1440,0L1425,0C1410,0,1380,0,1350,0C1320,0,1290,0,1260,0C1230,0,1200,0,1170,0C1140,0,1110,0,1080,0C1050,0,1020,0,990,0C960,0,930,0,900,0C870,0,840,0,810,0C780,0,750,0,720,0C690,0,660,0,630,0C600,0,570,0,540,0C510,0,480,0,450,0C420,0,390,0,360,0C330,0,300,0,270,0C240,0,210,0,180,0C150,0,120,0,90,0C60,0,30,0,15,0L0,0Z"></path></svg>